<mxfile host="Electron" modified="2023-10-02T14:47:27.818Z" agent="Mozilla/5.0 (Macintosh; Intel Mac OS X 10_15_7) AppleWebKit/537.36 (KHTML, like Gecko) draw.io/22.0.0 Chrome/114.0.5735.289 Electron/25.8.3 Safari/537.36" etag="rJt3iAa73WpwfYgU_hfC" version="22.0.0" type="device">
  <diagram name="Page-1" id="xRFwqCsBbE3hlCAoeBG9">
    <mxGraphModel dx="1434" dy="2023" grid="1" gridSize="10" guides="1" tooltips="1" connect="1" arrows="1" fold="1" page="1" pageScale="1" pageWidth="827" pageHeight="1169" math="0" shadow="0">
      <root>
        <mxCell id="0" />
        <mxCell id="1" parent="0" />
        <mxCell id="izr5lRpjIrMw2lPTnDPC-1" value="MyBatis Modul" style="swimlane;childLayout=stackLayout;resizeParent=1;resizeParentMax=0;horizontal=1;startSize=20;horizontalStack=0;html=1;labelBackgroundColor=none;fillColor=#F2CC8F;strokeColor=#E07A5F;fontColor=#393C56;" parent="1" vertex="1">
          <mxGeometry x="110" y="-1040" width="660" height="380" as="geometry" />
        </mxCell>
        <mxCell id="izr5lRpjIrMw2lPTnDPC-2" value="" style="swimlane;startSize=20;horizontal=0;html=1;align=center;labelBackgroundColor=none;fillColor=#F2CC8F;strokeColor=#E07A5F;fontColor=#393C56;" parent="izr5lRpjIrMw2lPTnDPC-1" vertex="1">
          <mxGeometry y="20" width="660" height="240" as="geometry" />
        </mxCell>
        <mxCell id="izr5lRpjIrMw2lPTnDPC-3" value="" style="edgeStyle=orthogonalEdgeStyle;rounded=0;orthogonalLoop=1;jettySize=auto;html=1;labelBackgroundColor=none;strokeColor=#E07A5F;fontColor=default;" parent="izr5lRpjIrMw2lPTnDPC-2" source="izr5lRpjIrMw2lPTnDPC-4" target="izr5lRpjIrMw2lPTnDPC-18" edge="1">
          <mxGeometry relative="1" as="geometry">
            <Array as="points">
              <mxPoint x="360" y="90" />
              <mxPoint x="410" y="90" />
            </Array>
          </mxGeometry>
        </mxCell>
        <mxCell id="izr5lRpjIrMw2lPTnDPC-4" value="HTTP-request" style="ellipse;whiteSpace=wrap;html=1;labelBackgroundColor=none;fillColor=#F2CC8F;strokeColor=#E07A5F;fontColor=#393C56;" parent="izr5lRpjIrMw2lPTnDPC-2" vertex="1">
          <mxGeometry x="370" y="15" width="70" height="35" as="geometry" />
        </mxCell>
        <mxCell id="izr5lRpjIrMw2lPTnDPC-5" value="Apache Tomcat" style="rounded=0;whiteSpace=wrap;html=1;labelBackgroundColor=none;fillColor=#F2CC8F;strokeColor=#E07A5F;fontColor=#393C56;" parent="izr5lRpjIrMw2lPTnDPC-2" vertex="1">
          <mxGeometry x="40" y="80" width="590" height="15" as="geometry" />
        </mxCell>
        <mxCell id="izr5lRpjIrMw2lPTnDPC-6" value="" style="endArrow=classic;html=1;rounded=0;labelBackgroundColor=none;strokeColor=#E07A5F;fontColor=default;" parent="izr5lRpjIrMw2lPTnDPC-2" target="izr5lRpjIrMw2lPTnDPC-16" edge="1">
          <mxGeometry width="50" height="50" relative="1" as="geometry">
            <mxPoint x="570" y="95" as="sourcePoint" />
            <mxPoint x="570" y="125" as="targetPoint" />
            <Array as="points">
              <mxPoint x="570" y="115" />
            </Array>
          </mxGeometry>
        </mxCell>
        <mxCell id="izr5lRpjIrMw2lPTnDPC-7" value="" style="endArrow=classic;html=1;rounded=0;labelBackgroundColor=none;strokeColor=#E07A5F;fontColor=default;" parent="izr5lRpjIrMw2lPTnDPC-2" target="izr5lRpjIrMw2lPTnDPC-14" edge="1">
          <mxGeometry width="50" height="50" relative="1" as="geometry">
            <mxPoint x="100" y="95" as="sourcePoint" />
            <mxPoint x="100" y="125" as="targetPoint" />
            <Array as="points">
              <mxPoint x="100" y="115" />
            </Array>
          </mxGeometry>
        </mxCell>
        <mxCell id="izr5lRpjIrMw2lPTnDPC-8" value="Controller Layer" style="swimlane;startSize=20;horizontal=0;html=1;labelBackgroundColor=none;fillColor=#F2CC8F;strokeColor=#E07A5F;fontColor=#393C56;" parent="izr5lRpjIrMw2lPTnDPC-2" vertex="1">
          <mxGeometry y="120" width="660" height="120" as="geometry" />
        </mxCell>
        <mxCell id="izr5lRpjIrMw2lPTnDPC-9" value="CustomerController" style="rounded=0;whiteSpace=wrap;html=1;labelBackgroundColor=none;fillColor=#F2CC8F;strokeColor=#E07A5F;fontColor=#393C56;" parent="izr5lRpjIrMw2lPTnDPC-8" vertex="1">
          <mxGeometry x="40" y="70" width="120" height="30" as="geometry" />
        </mxCell>
        <mxCell id="izr5lRpjIrMw2lPTnDPC-10" value="CartController" style="rounded=0;whiteSpace=wrap;html=1;labelBackgroundColor=none;fillColor=#F2CC8F;strokeColor=#E07A5F;fontColor=#393C56;" parent="izr5lRpjIrMw2lPTnDPC-8" vertex="1">
          <mxGeometry x="190" y="70" width="120" height="30" as="geometry" />
        </mxCell>
        <mxCell id="izr5lRpjIrMw2lPTnDPC-11" value="UserOrderController" style="rounded=0;whiteSpace=wrap;html=1;labelBackgroundColor=none;fillColor=#F2CC8F;strokeColor=#E07A5F;fontColor=#393C56;" parent="izr5lRpjIrMw2lPTnDPC-8" vertex="1">
          <mxGeometry x="510" y="70" width="120" height="30" as="geometry" />
        </mxCell>
        <mxCell id="izr5lRpjIrMw2lPTnDPC-12" value="ItemController" style="rounded=0;whiteSpace=wrap;html=1;labelBackgroundColor=none;fillColor=#F2CC8F;strokeColor=#E07A5F;fontColor=#393C56;" parent="izr5lRpjIrMw2lPTnDPC-8" vertex="1">
          <mxGeometry x="350" y="70" width="120" height="30" as="geometry" />
        </mxCell>
        <mxCell id="izr5lRpjIrMw2lPTnDPC-13" style="edgeStyle=orthogonalEdgeStyle;rounded=0;orthogonalLoop=1;jettySize=auto;html=1;entryX=0.5;entryY=0;entryDx=0;entryDy=0;labelBackgroundColor=none;strokeColor=#E07A5F;fontColor=default;" parent="izr5lRpjIrMw2lPTnDPC-8" source="izr5lRpjIrMw2lPTnDPC-14" target="izr5lRpjIrMw2lPTnDPC-9" edge="1">
          <mxGeometry relative="1" as="geometry" />
        </mxCell>
        <mxCell id="izr5lRpjIrMw2lPTnDPC-14" value="CustomerDTO" style="rounded=0;whiteSpace=wrap;html=1;labelBackgroundColor=none;fillColor=#F2CC8F;strokeColor=#E07A5F;fontColor=#393C56;" parent="izr5lRpjIrMw2lPTnDPC-8" vertex="1">
          <mxGeometry x="40" y="10" width="120" height="30" as="geometry" />
        </mxCell>
        <mxCell id="izr5lRpjIrMw2lPTnDPC-15" style="edgeStyle=orthogonalEdgeStyle;rounded=0;orthogonalLoop=1;jettySize=auto;html=1;entryX=0.5;entryY=0;entryDx=0;entryDy=0;labelBackgroundColor=none;strokeColor=#E07A5F;fontColor=default;" parent="izr5lRpjIrMw2lPTnDPC-8" source="izr5lRpjIrMw2lPTnDPC-16" target="izr5lRpjIrMw2lPTnDPC-11" edge="1">
          <mxGeometry relative="1" as="geometry" />
        </mxCell>
        <mxCell id="izr5lRpjIrMw2lPTnDPC-16" value="UserOrderDTO" style="rounded=0;whiteSpace=wrap;html=1;labelBackgroundColor=none;fillColor=#F2CC8F;strokeColor=#E07A5F;fontColor=#393C56;" parent="izr5lRpjIrMw2lPTnDPC-8" vertex="1">
          <mxGeometry x="510" y="10" width="120" height="30" as="geometry" />
        </mxCell>
        <mxCell id="izr5lRpjIrMw2lPTnDPC-17" style="edgeStyle=orthogonalEdgeStyle;rounded=0;orthogonalLoop=1;jettySize=auto;html=1;entryX=0.5;entryY=0;entryDx=0;entryDy=0;labelBackgroundColor=none;strokeColor=#E07A5F;fontColor=default;" parent="izr5lRpjIrMw2lPTnDPC-8" source="izr5lRpjIrMw2lPTnDPC-18" target="izr5lRpjIrMw2lPTnDPC-12" edge="1">
          <mxGeometry relative="1" as="geometry" />
        </mxCell>
        <mxCell id="izr5lRpjIrMw2lPTnDPC-18" value="ItemDTO" style="rounded=0;whiteSpace=wrap;html=1;labelBackgroundColor=none;fillColor=#F2CC8F;strokeColor=#E07A5F;fontColor=#393C56;" parent="izr5lRpjIrMw2lPTnDPC-8" vertex="1">
          <mxGeometry x="350" y="10" width="120" height="30" as="geometry" />
        </mxCell>
        <mxCell id="izr5lRpjIrMw2lPTnDPC-19" style="edgeStyle=orthogonalEdgeStyle;rounded=0;orthogonalLoop=1;jettySize=auto;html=1;entryX=0.5;entryY=0;entryDx=0;entryDy=0;labelBackgroundColor=none;strokeColor=#E07A5F;fontColor=default;" parent="izr5lRpjIrMw2lPTnDPC-8" source="izr5lRpjIrMw2lPTnDPC-20" target="izr5lRpjIrMw2lPTnDPC-10" edge="1">
          <mxGeometry relative="1" as="geometry" />
        </mxCell>
        <mxCell id="izr5lRpjIrMw2lPTnDPC-20" value="CartDTO" style="rounded=0;whiteSpace=wrap;html=1;labelBackgroundColor=none;fillColor=#F2CC8F;strokeColor=#E07A5F;fontColor=#393C56;" parent="izr5lRpjIrMw2lPTnDPC-8" vertex="1">
          <mxGeometry x="190" y="10" width="120" height="30" as="geometry" />
        </mxCell>
        <mxCell id="izr5lRpjIrMw2lPTnDPC-21" value="" style="endArrow=classic;html=1;rounded=0;entryX=0.5;entryY=0;entryDx=0;entryDy=0;labelBackgroundColor=none;strokeColor=#E07A5F;fontColor=default;" parent="izr5lRpjIrMw2lPTnDPC-2" target="izr5lRpjIrMw2lPTnDPC-20" edge="1">
          <mxGeometry width="50" height="50" relative="1" as="geometry">
            <mxPoint x="250" y="95" as="sourcePoint" />
            <mxPoint x="250" y="125" as="targetPoint" />
          </mxGeometry>
        </mxCell>
        <mxCell id="izr5lRpjIrMw2lPTnDPC-22" value="Service Layer" style="swimlane;startSize=20;horizontal=0;html=1;labelBackgroundColor=none;fillColor=#F2CC8F;strokeColor=#E07A5F;fontColor=#393C56;" parent="izr5lRpjIrMw2lPTnDPC-1" vertex="1">
          <mxGeometry y="260" width="660" height="120" as="geometry" />
        </mxCell>
        <mxCell id="izr5lRpjIrMw2lPTnDPC-23" value="CustomerService" style="rounded=0;whiteSpace=wrap;html=1;labelBackgroundColor=none;fillColor=#F2CC8F;strokeColor=#E07A5F;fontColor=#393C56;" parent="izr5lRpjIrMw2lPTnDPC-22" vertex="1">
          <mxGeometry x="40" y="30" width="120" height="60" as="geometry" />
        </mxCell>
        <mxCell id="izr5lRpjIrMw2lPTnDPC-24" value="UserOrderService" style="rounded=0;whiteSpace=wrap;html=1;labelBackgroundColor=none;fillColor=#F2CC8F;strokeColor=#E07A5F;fontColor=#393C56;" parent="izr5lRpjIrMw2lPTnDPC-22" vertex="1">
          <mxGeometry x="510" y="30" width="120" height="60" as="geometry" />
        </mxCell>
        <mxCell id="izr5lRpjIrMw2lPTnDPC-25" value="ItemService" style="rounded=0;whiteSpace=wrap;html=1;labelBackgroundColor=none;fillColor=#F2CC8F;strokeColor=#E07A5F;fontColor=#393C56;" parent="izr5lRpjIrMw2lPTnDPC-22" vertex="1">
          <mxGeometry x="350" y="30" width="120" height="60" as="geometry" />
        </mxCell>
        <mxCell id="izr5lRpjIrMw2lPTnDPC-26" value="CartService" style="rounded=0;whiteSpace=wrap;html=1;labelBackgroundColor=none;fillColor=#F2CC8F;strokeColor=#E07A5F;fontColor=#393C56;" parent="izr5lRpjIrMw2lPTnDPC-22" vertex="1">
          <mxGeometry x="190" y="30" width="120" height="60" as="geometry" />
        </mxCell>
        <mxCell id="izr5lRpjIrMw2lPTnDPC-27" value="" style="edgeStyle=orthogonalEdgeStyle;rounded=0;orthogonalLoop=1;jettySize=auto;html=1;labelBackgroundColor=none;strokeColor=#E07A5F;fontColor=default;" parent="izr5lRpjIrMw2lPTnDPC-1" source="izr5lRpjIrMw2lPTnDPC-9" target="izr5lRpjIrMw2lPTnDPC-23" edge="1">
          <mxGeometry relative="1" as="geometry" />
        </mxCell>
        <mxCell id="izr5lRpjIrMw2lPTnDPC-28" value="" style="edgeStyle=orthogonalEdgeStyle;rounded=0;orthogonalLoop=1;jettySize=auto;html=1;labelBackgroundColor=none;strokeColor=#E07A5F;fontColor=default;" parent="izr5lRpjIrMw2lPTnDPC-1" source="izr5lRpjIrMw2lPTnDPC-10" target="izr5lRpjIrMw2lPTnDPC-26" edge="1">
          <mxGeometry relative="1" as="geometry" />
        </mxCell>
        <mxCell id="izr5lRpjIrMw2lPTnDPC-29" value="" style="edgeStyle=orthogonalEdgeStyle;rounded=0;orthogonalLoop=1;jettySize=auto;html=1;labelBackgroundColor=none;strokeColor=#E07A5F;fontColor=default;" parent="izr5lRpjIrMw2lPTnDPC-1" source="izr5lRpjIrMw2lPTnDPC-12" target="izr5lRpjIrMw2lPTnDPC-25" edge="1">
          <mxGeometry relative="1" as="geometry" />
        </mxCell>
        <mxCell id="izr5lRpjIrMw2lPTnDPC-30" value="" style="edgeStyle=orthogonalEdgeStyle;rounded=0;orthogonalLoop=1;jettySize=auto;html=1;labelBackgroundColor=none;strokeColor=#E07A5F;fontColor=default;" parent="izr5lRpjIrMw2lPTnDPC-1" source="izr5lRpjIrMw2lPTnDPC-11" target="izr5lRpjIrMw2lPTnDPC-24" edge="1">
          <mxGeometry relative="1" as="geometry" />
        </mxCell>
        <mxCell id="izr5lRpjIrMw2lPTnDPC-31" value="Data Access Layer" style="swimlane;startSize=20;horizontal=0;html=1;labelBackgroundColor=none;fillColor=#F2CC8F;strokeColor=#E07A5F;fontColor=#393C56;" parent="1" vertex="1">
          <mxGeometry x="110" y="-660" width="660" height="120" as="geometry" />
        </mxCell>
        <mxCell id="izr5lRpjIrMw2lPTnDPC-32" value="CartMapper" style="rounded=0;whiteSpace=wrap;html=1;labelBackgroundColor=none;fillColor=#F2CC8F;strokeColor=#E07A5F;fontColor=#393C56;" parent="izr5lRpjIrMw2lPTnDPC-31" vertex="1">
          <mxGeometry x="190" y="30" width="120" height="60" as="geometry" />
        </mxCell>
        <mxCell id="izr5lRpjIrMw2lPTnDPC-33" value="CustomerMapper" style="rounded=0;whiteSpace=wrap;html=1;labelBackgroundColor=none;fillColor=#F2CC8F;strokeColor=#E07A5F;fontColor=#393C56;" parent="izr5lRpjIrMw2lPTnDPC-31" vertex="1">
          <mxGeometry x="40" y="30" width="120" height="60" as="geometry" />
        </mxCell>
        <mxCell id="izr5lRpjIrMw2lPTnDPC-34" value="ItemMapper" style="rounded=0;whiteSpace=wrap;html=1;labelBackgroundColor=none;fillColor=#F2CC8F;strokeColor=#E07A5F;fontColor=#393C56;" parent="izr5lRpjIrMw2lPTnDPC-31" vertex="1">
          <mxGeometry x="350" y="30" width="120" height="60" as="geometry" />
        </mxCell>
        <mxCell id="izr5lRpjIrMw2lPTnDPC-35" value="UserOrderMapper" style="rounded=0;whiteSpace=wrap;html=1;labelBackgroundColor=none;fillColor=#F2CC8F;strokeColor=#E07A5F;fontColor=#393C56;" parent="izr5lRpjIrMw2lPTnDPC-31" vertex="1">
          <mxGeometry x="510" y="30" width="120" height="60" as="geometry" />
        </mxCell>
        <mxCell id="izr5lRpjIrMw2lPTnDPC-36" value="Database" style="swimlane;startSize=20;horizontal=0;html=1;labelBackgroundColor=none;fillColor=#F2CC8F;strokeColor=#E07A5F;fontColor=#393C56;" parent="1" vertex="1">
          <mxGeometry x="110" y="-540" width="660" height="120" as="geometry" />
        </mxCell>
        <mxCell id="izr5lRpjIrMw2lPTnDPC-37" value="MySQL" style="shape=cylinder3;whiteSpace=wrap;html=1;boundedLbl=1;backgroundOutline=1;size=15;labelBackgroundColor=none;fillColor=#F2CC8F;strokeColor=#E07A5F;fontColor=#393C56;" parent="izr5lRpjIrMw2lPTnDPC-36" vertex="1">
          <mxGeometry x="300" y="20" width="70" height="80" as="geometry" />
        </mxCell>
        <mxCell id="izr5lRpjIrMw2lPTnDPC-38" style="edgeStyle=orthogonalEdgeStyle;rounded=0;orthogonalLoop=1;jettySize=auto;html=1;entryX=1;entryY=1;entryDx=0;entryDy=-15;entryPerimeter=0;exitX=0.5;exitY=1;exitDx=0;exitDy=0;labelBackgroundColor=none;strokeColor=#E07A5F;fontColor=default;" parent="izr5lRpjIrMw2lPTnDPC-36" source="izr5lRpjIrMw2lPTnDPC-35" edge="1">
          <mxGeometry relative="1" as="geometry">
            <mxPoint x="570" y="-20" as="sourcePoint" />
            <mxPoint x="370" y="75" as="targetPoint" />
            <Array as="points">
              <mxPoint x="570" y="75" />
            </Array>
          </mxGeometry>
        </mxCell>
        <mxCell id="izr5lRpjIrMw2lPTnDPC-39" value="" style="edgeStyle=orthogonalEdgeStyle;rounded=0;orthogonalLoop=1;jettySize=auto;html=1;labelBackgroundColor=none;strokeColor=#E07A5F;fontColor=default;" parent="1" source="izr5lRpjIrMw2lPTnDPC-32" target="izr5lRpjIrMw2lPTnDPC-37" edge="1">
          <mxGeometry relative="1" as="geometry">
            <Array as="points">
              <mxPoint x="360" y="-490" />
            </Array>
          </mxGeometry>
        </mxCell>
        <mxCell id="izr5lRpjIrMw2lPTnDPC-40" style="edgeStyle=orthogonalEdgeStyle;rounded=0;orthogonalLoop=1;jettySize=auto;html=1;entryX=0;entryY=0;entryDx=0;entryDy=52.5;entryPerimeter=0;labelBackgroundColor=none;strokeColor=#E07A5F;fontColor=default;" parent="1" source="izr5lRpjIrMw2lPTnDPC-33" target="izr5lRpjIrMw2lPTnDPC-37" edge="1">
          <mxGeometry relative="1" as="geometry">
            <Array as="points">
              <mxPoint x="210" y="-467" />
              <mxPoint x="370" y="-467" />
            </Array>
          </mxGeometry>
        </mxCell>
        <mxCell id="izr5lRpjIrMw2lPTnDPC-41" style="edgeStyle=orthogonalEdgeStyle;rounded=0;orthogonalLoop=1;jettySize=auto;html=1;entryX=1;entryY=0;entryDx=0;entryDy=27.5;entryPerimeter=0;labelBackgroundColor=none;strokeColor=#E07A5F;fontColor=default;" parent="1" source="izr5lRpjIrMw2lPTnDPC-34" target="izr5lRpjIrMw2lPTnDPC-37" edge="1">
          <mxGeometry relative="1" as="geometry" />
        </mxCell>
        <mxCell id="izr5lRpjIrMw2lPTnDPC-42" value="" style="edgeStyle=orthogonalEdgeStyle;rounded=0;orthogonalLoop=1;jettySize=auto;html=1;labelBackgroundColor=none;strokeColor=#E07A5F;fontColor=default;" parent="1" source="izr5lRpjIrMw2lPTnDPC-23" target="izr5lRpjIrMw2lPTnDPC-33" edge="1">
          <mxGeometry relative="1" as="geometry" />
        </mxCell>
        <mxCell id="izr5lRpjIrMw2lPTnDPC-43" value="" style="edgeStyle=orthogonalEdgeStyle;rounded=0;orthogonalLoop=1;jettySize=auto;html=1;labelBackgroundColor=none;strokeColor=#E07A5F;fontColor=default;" parent="1" source="izr5lRpjIrMw2lPTnDPC-26" target="izr5lRpjIrMw2lPTnDPC-32" edge="1">
          <mxGeometry relative="1" as="geometry" />
        </mxCell>
        <mxCell id="izr5lRpjIrMw2lPTnDPC-44" value="" style="edgeStyle=orthogonalEdgeStyle;rounded=0;orthogonalLoop=1;jettySize=auto;html=1;labelBackgroundColor=none;strokeColor=#E07A5F;fontColor=default;" parent="1" source="izr5lRpjIrMw2lPTnDPC-25" target="izr5lRpjIrMw2lPTnDPC-34" edge="1">
          <mxGeometry relative="1" as="geometry" />
        </mxCell>
        <mxCell id="izr5lRpjIrMw2lPTnDPC-45" value="" style="edgeStyle=orthogonalEdgeStyle;rounded=0;orthogonalLoop=1;jettySize=auto;html=1;labelBackgroundColor=none;strokeColor=#E07A5F;fontColor=default;" parent="1" source="izr5lRpjIrMw2lPTnDPC-24" target="izr5lRpjIrMw2lPTnDPC-35" edge="1">
          <mxGeometry relative="1" as="geometry" />
        </mxCell>
      </root>
    </mxGraphModel>
  </diagram>
</mxfile>
